<mxfile host="app.diagrams.net" modified="2023-12-21T11:30:31.179Z" agent="Mozilla/5.0 (Windows NT 10.0; Win64; x64) AppleWebKit/537.36 (KHTML, like Gecko) Chrome/116.0.0.0 Safari/537.36" version="22.1.11" etag="zfYyeeFV_qeSV_0N0Uix" type="github">
  <diagram name="第 1 页" id="pFkgPFDs2E5yCrljTB45">
    <mxGraphModel>
      <root>
        <mxCell id="0" />
        <mxCell id="1" parent="0" />
      </root>
    </mxGraphModel>
  </diagram>
</mxfile>
